<?xml version="1.0" standalone="no"?>
<!DOCTYPE svg PUBLIC "-//W3C//DTD SVG 20010904//EN"
 "http://www.w3.org/TR/2001/REC-SVG-20010904/DTD/svg10.dtd">
<svg version="1.0" xmlns="http://www.w3.org/2000/svg"
 width="1500.000000pt" height="1500.000000pt" viewBox="0 0 1500.000000 1500.000000"
 preserveAspectRatio="xMidYMid meet">
<metadata>
Created by potrace 1.11, written by Peter Selinger 2001-2013
</metadata>
<g transform="translate(0.000000,1500.000000) scale(0.100000,-0.100000)"
fill="#000000" stroke="none">
<path d="M4087 11384 c-1 -1 -37 -4 -80 -7 -212 -17 -431 -121 -594 -283 -93
-93 -143 -171 -249 -391 -154 -317 -235 -486 -294 -608 -32 -66 -97 -201 -145
-300 -48 -99 -117 -241 -152 -315 -167 -346 -195 -405 -270 -560 -45 -91 -110
-226 -146 -300 -35 -74 -104 -216 -152 -315 -48 -99 -104 -216 -125 -260 -21
-44 -84 -174 -140 -290 -111 -227 -191 -393 -440 -910 -171 -356 -203 -421
-285 -590 -48 -99 -113 -234 -145 -300 -32 -66 -99 -205 -150 -310 -51 -104
-117 -242 -147 -304 -30 -63 -102 -211 -159 -328 -104 -216 -113 -234 -157
-333 -20 -46 -36 -87 -42 -110 -1 -3 -4 -12 -8 -20 -42 -103 -56 -265 -31
-352 61 -212 241 -382 589 -556 339 -170 514 -214 705 -178 127 24 214 71 313
169 106 105 166 210 386 670 34 70 88 184 122 255 34 70 92 190 129 267 37 77
93 194 125 260 31 66 61 122 65 125 10 6 2958 6 2962 0 2 -3 37 -75 78 -160
40 -85 116 -243 168 -350 51 -107 110 -229 129 -270 116 -244 327 -664 360
-715 45 -69 146 -164 218 -205 76 -43 149 -61 266 -66 90 -3 122 0 202 20 164
42 367 131 567 249 116 69 192 128 275 213 176 182 220 360 146 592 -42 129
-75 202 -331 727 -51 105 -123 253 -160 330 -37 77 -104 214 -147 305 -44 91
-112 230 -150 310 -39 80 -105 217 -148 305 -43 88 -108 223 -145 300 -37 77
-106 219 -152 315 -87 178 -176 362 -298 615 -37 77 -106 219 -152 315 -47 96
-115 236 -151 310 -36 74 -109 225 -162 335 -54 110 -123 254 -155 320 -32 66
-97 201 -145 300 -48 99 -118 243 -155 320 -37 77 -107 221 -155 320 -48 99
-114 236 -147 305 -208 434 -341 692 -388 755 -147 197 -306 304 -528 355 -46
11 -219 29 -225 24z m313 -3769 c37 -77 127 -261 200 -410 72 -148 145 -299
162 -335 17 -36 32 -67 34 -70 1 -3 -317 -5 -707 -5 -390 0 -709 1 -709 2 0 2
40 87 205 428 140 292 187 388 295 610 58 121 129 266 155 323 l49 103 124
-253 c68 -139 155 -316 192 -393z"/>
<path d="M9547 11384 c-1 -1 -56 -4 -122 -8 -66 -4 -131 -8 -145 -10 -95 -14
-121 -19 -170 -31 -329 -84 -466 -283 -496 -719 -9 -128 -9 -6230 -1 -6351 13
-168 35 -270 83 -370 96 -201 322 -315 681 -341 102 -7 4515 -7 4613 0 144 11
185 17 265 36 182 45 290 131 368 292 56 115 84 232 102 418 6 62 6 333 0 400
-24 260 -91 452 -192 553 -74 74 -259 155 -393 172 -99 13 -283 14 -1962 14
l-1678 1 0 540 0 540 1113 1 c611 1 1141 2 1175 4 75 3 176 14 194 20 7 2 32
6 55 9 48 6 151 39 203 66 56 29 151 128 187 195 46 87 81 188 97 280 3 17 8
41 11 55 27 129 20 578 -11 700 -3 14 -8 36 -10 50 -9 53 -47 157 -77 214 -49
92 -106 149 -192 190 -136 66 -216 87 -385 102 -25 2 -566 5 -1202 5 l-1158 2
0 538 0 539 1713 1 c1718 1 1797 1 1917 19 230 34 339 87 431 210 86 114 143
295 164 515 5 57 6 355 1 400 -13 119 -20 160 -36 235 -24 109 -62 200 -111
270 -48 68 -89 101 -187 150 -120 60 -200 78 -382 86 -123 5 -4456 13 -4463 8z"/>
</g>
</svg>
